<?xml version="1.0" encoding="iso-8859-1"?>
<!-- Generator: Adobe Illustrator 19.0.0, SVG Export Plug-In . SVG Version: 6.00 Build 0)  -->
<svg version="1.1" id="Capa_1" xmlns="http://www.w3.org/2000/svg" xmlns:xlink="http://www.w3.org/1999/xlink" x="0px" y="0px"
	 viewBox="0 0 409.601 409.601" style="enable-background:new 0 0 409.601 409.601;" xml:space="preserve">
<circle style="fill:#334D5C;" cx="204.801" cy="204.8" r="204.8"/>
<path style="opacity:0.1;enable-background:new    ;" d="M298.667,131.84L298.667,131.84c-23.04-27.733-57.173-44.373-93.867-44.373
	c-43.52,0-82.773,22.187-104.533,58.88c-1.28,2.133-0.427,4.693,1.707,5.973l1.28,0.853c-9.387,17.493-14.507,37.973-14.507,60.587
	c0,23.467,6.827,46.08,19.627,65.707v14.08c0,0.853,0.427,1.28,0.853,1.707l0,0l0,0c0,0,0,0,0.427,0.427l24.32,24.32l-8.96,2.56
	l87.04,87.04c98.133-3.413,178.773-75.52,194.56-169.813L298.667,131.84z"/>
<polyline style="opacity:0.1;enable-background:new    ;" points="100.694,151.04 105.388,155.733 105.388,147.627 "/>
<path style="fill:#64798A;" d="M118.188,291.84c-18.773-21.76-29.44-49.92-29.44-78.933c0-68.267,49.067-119.893,113.92-119.893
	c66.133,0,118.187,52.48,118.187,119.893c0,28.16-9.813,52.48-30.293,75.947l-11.52-10.24c18.347-20.48,26.453-41.387,26.453-65.707
	c0-58.453-45.227-104.533-102.827-104.533c-55.893,0-98.56,45.227-98.56,104.96c0,25.173,8.96,49.493,25.6,68.693L118.188,291.84z"
	/>
<path style="fill:#27A2DB;" d="M138.668,205.227L138.668,205.227c14.933,0,26.88,11.947,26.88,26.88v63.147
	c0,14.933-11.947,26.88-26.88,26.88l0,0"/>
<path style="fill:#DC8744;" d="M124.588,322.133h14.507V205.227h-11.947c-1.707,0-2.987,1.28-2.987,2.987v113.92h0.427V322.133z"/>
<path style="fill:#FCD462;" d="M124.588,296.107h-13.653c-1.707,0-2.987-1.28-2.987-2.987v-58.88c0-1.707,1.28-2.987,2.987-2.987
	h13.653V296.107z"/>
<path style="fill:#27A2DB;" d="M270.508,205.227L270.508,205.227c-14.933,0-26.88,11.947-26.88,26.88v63.147
	c0,14.933,11.947,26.88,26.88,26.88l0,0"/>
<path style="fill:#DC8744;" d="M281.601,322.133h-11.947V205.227h11.947c1.707,0,2.987,1.28,2.987,2.987v111.36
	C284.588,320.853,283.307,322.133,281.601,322.133z"/>
<path style="fill:#FCD462;" d="M284.588,296.107h13.653c1.707,0,2.987-1.28,2.987-2.987v-58.88c0-1.707-1.28-2.987-2.987-2.987
	h-13.653L284.588,296.107L284.588,296.107z"/>
<path style="fill:#DC8744;" d="M308.908,146.347c-21.76-36.693-61.44-58.88-103.68-58.88c-43.093,0-82.773,22.613-104.533,58.88
	c-1.28,2.133-0.427,4.693,1.707,5.973l17.92,9.813c2.133,1.28,4.693,0.427,5.547-1.707c16.64-27.307,46.507-43.947,79.36-43.947
	c32,0,61.867,16.64,78.933,43.947c1.28,2.133,3.84,2.56,5.547,1.707l17.92-9.813C309.76,151.04,310.188,148.053,308.908,146.347z"/>
<g>
</g>
<g>
</g>
<g>
</g>
<g>
</g>
<g>
</g>
<g>
</g>
<g>
</g>
<g>
</g>
<g>
</g>
<g>
</g>
<g>
</g>
<g>
</g>
<g>
</g>
<g>
</g>
<g>
</g>
</svg>
