<svg id="Capa_1" enable-background="new 0 0 512 512" height="512" viewBox="0 0 512 512" width="512" xmlns="http://www.w3.org/2000/svg"><g><path d="m264.428 67.094-49.52.365c-73.903.545-145.873 23.681-206.25 66.303l-.432.305c-9.898 6.987-11.058 21.231-2.42 29.727l.307.302c5.69 5.598 14.037 7.275 21.353 4.346 9.115-3.65 21.63-8.653 31.012-12.403 3.01-1.203 5.523 2.562 3.258 4.882l-22.29 22.833c-9.289 9.515-8.097 25.029 2.533 33.017l.354.266c6.403 4.811 14.776 5.812 22.035 2.688l38.805-16.698c3.452-1.486 6.716 2.441 4.624 5.563l-25.115 37.492c-5.763 8.603-3.154 20.277 5.723 25.608 4.767 2.863 10.586 3.378 15.782 1.396l47.374-18.071 156.562-95.076z" fill="#ecf4ff"/><path d="m296.184 134.572-31.756-67.479-47.79.353-123.803 206.13c3.703 1.04 7.68.912 11.351-.489l47.374-18.071 113.785-69.099z" fill="#ddeafb"/><path d="m447.837 177.251 22.942 43.886c34.239 65.496 47.626 139.898 38.366 213.222l-.066.525c-1.518 12.021-13.547 19.736-25.105 16.103l-.411-.129c-7.615-2.394-13.017-8.973-13.868-16.808-1.06-9.761-2.523-23.16-3.62-33.203-.352-3.223-4.856-3.672-5.84-.583l-9.684 30.404c-4.036 12.67-18.291 18.907-30.337 13.275l-.402-.188c-7.255-3.392-12.072-10.314-12.725-18.189l-3.49-42.1c-.311-3.746-5.31-4.782-7.084-1.468l-21.298 39.784c-4.887 9.129-16.418 12.31-25.295 6.979-4.767-2.863-7.955-7.758-8.647-13.276l-6.304-50.311 10.378-182.875z" fill="#ecf4ff"/><path d="m373.35 180.919 74.487-3.668 22.141 42.354-123.804 206.129c-2.658-2.78-4.413-6.351-4.902-10.25l-6.304-50.311 7.542-132.909z" fill="#ddeafb"/><path d="m62.455 385.494c-5.074-3.048-6.717-9.632-3.67-14.706l216.369-360.25c3.048-5.074 9.632-6.717 14.706-3.67l199.194 119.638c5.074 3.048 6.717 9.632 3.67 14.706l-216.369 360.25c-3.048 5.074-9.632 6.717-14.706 3.67z" fill="#78c2a4"/><path d="m492.724 141.213c3.048-5.074 1.405-11.659-3.669-14.706l-18.197-10.93c5.074 3.048 6.717 9.632 3.67 14.706l-216.37 360.249c-3.048 5.074-9.632 6.717-14.706 3.669l18.197 10.93c5.074 3.048 11.659 1.405 14.706-3.67z" fill="#66b394"/><path d="m137.166 391.813c-.426.766-.169 1.733.583 2.184l81.02 48.662c.752.452 1.726.225 2.202-.512 13.294-20.558 40.309-27.299 61.703-15.396.766.426 1.733.169 2.184-.583l145.393-242.076c.452-.752.225-1.726-.512-2.202-20.558-13.294-27.299-40.309-15.396-61.703.426-.766.169-1.733-.583-2.184l-81.02-48.661c-.752-.452-1.726-.225-2.202.512-13.294 20.558-40.309 27.299-61.703 15.396-.766-.426-1.733-.169-2.184.583l-145.394 242.075c-.452.752-.225 1.726.512 2.202 20.558 13.294 27.299 40.309 15.397 61.703z" fill="#e0f8c5"/><path d="m414.343 120.187c.426-.766.169-1.733-.583-2.184l-20.539-12.336c-9.407 15.662-8.529 34.635.673 49.058 7.632 11.963 7.83 27.228.524 39.393l-117.545 195.706c-7.301 12.155-20.886 19.161-35.021 18.045-17.055-1.347-34.216 6.791-43.623 22.453l20.54 12.336c.752.452 1.726.225 2.202-.512 13.294-20.558 40.309-27.299 61.703-15.396.766.426 1.733.169 2.184-.583l145.393-242.076c.452-.752.225-1.726-.512-2.202-20.557-13.293-27.298-40.308-15.396-61.702z" fill="#ccf49f"/><g><path d="m298.799 305.034c-2.558 0-5.061-1.27-6.533-3.592-2.28-3.597-1.218-8.358 2.368-10.648.25-.162 12.5-8.236 15.67-20.744 1.24-4.89-1.249-9.24-3.991-11.68-2.801-2.493-6.219-3.485-8.713-2.534-6.367 2.433-14.323 8.62-21.267 14.351-11.833 9.77-26.858 9.776-38.277.012-10.391-8.884-16.094-26.021-6.888-41.581 5.591-9.451 9.483-14.512 20.977-20.073 3.843-1.858 8.462-.249 10.32 3.59 1.859 3.841.252 8.462-3.59 10.32-7.715 3.733-9.74 6.143-14.407 14.031-5.093 8.608-1.687 17.423 3.631 21.97 2.094 1.79 9.612 7.067 18.396-.184 11.362-9.38 18.777-14.268 25.592-16.87 7.942-3.03 17.329-.955 24.498 5.426 7.827 6.963 11.159 17.317 8.698 27.022-4.72 18.628-21.637 29.53-22.355 29.985-1.283.811-2.714 1.199-4.129 1.199z" fill="#2b4d66"/></g><g><path d="m325.513 292.953c-1.354 0-2.725-.356-3.971-1.104l-98.945-59.427c-3.658-2.197-4.843-6.944-2.646-10.602 2.198-3.658 6.944-4.84 10.602-2.646l98.945 59.427c3.658 2.197 4.843 6.944 2.646 10.602-1.45 2.413-4.009 3.75-6.631 3.75z" fill="#2b4d66"/></g><g><path d="m219.154 357.953c-1.354 0-2.725-.356-3.971-1.104-3.658-2.197-4.843-6.944-2.646-10.602l11.224-18.689c2.196-3.659 6.944-4.842 10.602-2.646 3.658 2.197 4.843 6.944 2.646 10.602l-11.224 18.689c-1.448 2.413-4.008 3.75-6.631 3.75z" fill="#2b4d66"/></g><g><path d="m321.115 188.19c-1.354 0-2.725-.356-3.971-1.104-3.658-2.197-4.843-6.944-2.646-10.602l11.224-18.688c2.198-3.659 6.945-4.841 10.602-2.646 3.658 2.197 4.843 6.944 2.646 10.602l-11.224 18.688c-1.45 2.413-4.008 3.75-6.631 3.75z" fill="#2b4d66"/></g><g><g><path d="m256.634 467.269c-1.355 0-2.726-.356-3.973-1.105l-1.8-1.081c-3.657-2.198-4.841-6.945-2.643-10.603 2.199-3.657 6.944-4.839 10.603-2.643l1.8 1.081c3.657 2.198 4.841 6.945 2.643 10.603-1.45 2.412-4.007 3.748-6.63 3.748z" fill="#e0f8c5"/></g><g><path d="m106.846 377.304c-1.354 0-2.724-.355-3.97-1.103l-1.8-1.081c-3.659-2.197-4.844-6.943-2.648-10.602 2.197-3.661 6.942-4.845 10.602-2.648l1.8 1.08c3.659 2.197 4.844 6.943 2.648 10.602-1.45 2.415-4.009 3.752-6.632 3.752z" fill="#e0f8c5"/></g><g><path d="m446.449 151.232c-1.355 0-2.726-.356-3.973-1.105l-1.8-1.081c-3.657-2.198-4.841-6.945-2.643-10.603s6.944-4.84 10.603-2.643l1.8 1.081c3.657 2.198 4.841 6.945 2.643 10.603-1.45 2.412-4.007 3.748-6.63 3.748z" fill="#e0f8c5"/></g><g><path d="m296.66 61.267c-1.354 0-2.724-.355-3.97-1.103l-1.8-1.08c-3.659-2.197-4.844-6.943-2.648-10.602 2.197-3.66 6.942-4.844 10.602-2.648l1.8 1.08c3.659 2.197 4.844 6.943 2.648 10.602-1.449 2.414-4.008 3.751-6.632 3.751z" fill="#e0f8c5"/></g></g><g><path d="m90.235 144.999c-2.566 0-5.076-1.278-6.545-3.61-2.274-3.611-1.19-8.381 2.421-10.656 1.77-1.115 43.787-27.158 85.457-16.59 4.136 1.048 6.639 5.252 5.59 9.388-1.048 4.136-5.254 6.642-9.388 5.59-35.317-8.951-73.046 14.45-73.423 14.688-1.28.806-2.705 1.19-4.112 1.19z" fill="#ddeafb"/></g><g><path d="m452.323 376.339c-.614 0-1.236-.073-1.859-.227-4.141-1.023-6.668-5.207-5.65-9.347.14-.574 10.347-43.8-9.139-74.326-2.296-3.597-1.24-8.373 2.356-10.67 3.596-2.296 8.373-1.241 10.67 2.356 23.128 36.231 11.618 84.31 11.117 86.339-.87 3.52-4.025 5.875-7.495 5.875z" fill="#ddeafb"/></g></g></svg>