<svg height="512" viewBox="0 0 128 128" width="512" xmlns="http://www.w3.org/2000/svg"><g id="Circle_Grid" data-name="Circle Grid"><circle cx="64" cy="64" fill="#ef5261" r="64"/></g><g id="icon"><path d="m30.821 83.246h11.29v16.575h-11.29z" fill="#eeefee" transform="matrix(.707 .707 -.707 .707 75.405 1.024)"/><path d="m38.11 75.356h16.515a0 0 0 0 1 0 0v11.144a1.408 1.408 0 0 1 -1.408 1.408h-13.7a1.408 1.408 0 0 1 -1.407-1.408v-11.144a0 0 0 0 1 0 0z" fill="#dbd8dd" transform="matrix(.707 .707 -.707 .707 71.303 -8.878)"/><path d="m72.764 32.1h21.136a5.765 5.765 0 0 1 5.765 5.765v19.373a0 0 0 0 1 0 0h-32.665a0 0 0 0 1 0 0v-19.378a5.765 5.765 0 0 1 5.764-5.76z" fill="#dbd8dd" transform="matrix(.707 .707 -.707 .707 55.992 -45.843)"/><rect fill="#eeefee" height="36.353" rx="1.922" transform="matrix(.707 .707 -.707 .707 64.388 -25.573)" width="39.236" x="43.446" y="46.76"/><rect fill="#eeefee" height="9.74" rx="2.828" transform="matrix(.707 .707 -.707 .707 55.827 -46.6)" width="26.064" x="71.134" y="39.22"/><g fill="#575b6d"><rect height="5.019" rx="1.65" transform="matrix(.707 .707 -.707 .707 50.728 -44.527)" width="3.301" x="77.463" y="36.462"/><rect height="5.019" rx="1.65" transform="matrix(.707 .707 -.707 .707 54.07 -45.911)" width="3.301" x="80.804" y="39.803"/><rect height="5.019" rx="1.65" transform="matrix(.707 .707 -.707 .707 57.411 -47.295)" width="3.301" x="84.145" y="43.144"/><rect height="5.019" rx="1.65" transform="matrix(.707 .707 -.707 .707 60.752 -48.679)" width="3.301" x="87.486" y="46.485"/></g><rect fill="#dbd8dd" height="4.204" rx="2.102" transform="matrix(.707 .707 -.707 .707 62.995 -28.935)" width="26.784" x="53.033" y="59.473"/><rect fill="#dbd8dd" height="4.204" rx="2.102" transform="matrix(.707 .707 -.707 .707 65.78 -22.212)" width="26.784" x="46.31" y="66.196"/></g></svg>