<?xml version="1.0"?>
<svg xmlns="http://www.w3.org/2000/svg" xmlns:xlink="http://www.w3.org/1999/xlink" viewBox="0 0 128 128" width="512" height="512"><defs><linearGradient id="linear-gradient" x1="109.264" y1="109.264" x2="18.736" y2="18.736" gradientUnits="userSpaceOnUse"><stop offset="0" stop-color="#ff8243"/><stop offset="1" stop-color="#ffe477"/></linearGradient></defs><g id="Layer_2" data-name="Layer 2"><path d="M57.534,88.679a1.75,1.75,0,0,1-1.237-.513L30.449,62.317a1.749,1.749,0,0,1,0-2.475l7.07-7.071a1.8,1.8,0,0,1,2.475,0l17.54,17.54L88.012,39.834a1.75,1.75,0,0,1,1.237-.513h0a1.75,1.75,0,0,1,1.237.513l7.07,7.071a1.749,1.749,0,0,1,0,2.475L58.771,88.166A1.75,1.75,0,0,1,57.534,88.679ZM34.161,61.08,57.534,84.454,93.845,48.143l-4.6-4.6L58.771,74.023a1.749,1.749,0,0,1-2.475,0l-17.54-17.54ZM111.668,64A47.722,47.722,0,0,0,64,16.332a47.176,47.176,0,0,0-21.582,5.154A1.75,1.75,0,1,0,44,24.605a43.721,43.721,0,0,1,20-4.773A44.143,44.143,0,1,1,25.113,43.038a1.75,1.75,0,1,0-3.08-1.664A47.672,47.672,0,1,0,111.668,64ZM31.749,33.822c1-1.068,2.066-2.1,3.171-3.067a1.75,1.75,0,0,0-2.307-2.633c-1.19,1.043-2.341,2.156-3.419,3.308a1.75,1.75,0,0,0,2.555,2.393Zm37.864,92.207,3.58-2.868a5.485,5.485,0,0,1,4.959-.983l4.391,1.28a8.925,8.925,0,0,0,10.389-4.306l2.2-4.008a5.484,5.484,0,0,1,4.2-2.814l4.555-.5a8.925,8.925,0,0,0,7.941-7.941,1.75,1.75,0,0,0-3.479-.383,5.447,5.447,0,0,1-4.846,4.846l-4.556.5a8.988,8.988,0,0,0-6.891,4.611l-2.2,4.008a5.449,5.449,0,0,1-6.338,2.628l-4.391-1.28a8.982,8.982,0,0,0-8.127,1.61l-3.58,2.868a5.444,5.444,0,0,1-6.852,0l-3.58-2.868a8.993,8.993,0,0,0-8.128-1.611l-4.39,1.281a5.452,5.452,0,0,1-6.339-2.628l-2.2-4.009a8.982,8.982,0,0,0-6.892-4.61l-4.555-.5a5.447,5.447,0,0,1-4.846-4.846l-.5-4.556a8.988,8.988,0,0,0-4.611-6.891l-4.008-2.2A5.512,5.512,0,0,1,7.9,83.523l1.28-4.391a8.986,8.986,0,0,0-1.61-8.127L4.7,67.426a5.447,5.447,0,0,1,0-6.852l2.868-3.58a8.991,8.991,0,0,0,1.611-8.128L7.9,44.477a5.446,5.446,0,0,1,2.628-6.339l4.009-2.2a8.982,8.982,0,0,0,4.61-6.892l.5-4.555A5.447,5.447,0,0,1,24.5,19.649l4.556-.5a8.988,8.988,0,0,0,6.891-4.611l2.2-4.008A5.516,5.516,0,0,1,44.477,7.9l4.391,1.28a8.985,8.985,0,0,0,8.127-1.61L60.574,4.7a5.446,5.446,0,0,1,6.852,0l3.58,2.868a9,9,0,0,0,8.128,1.611L83.523,7.9a5.453,5.453,0,0,1,6.339,2.628l2.2,4.009a8.982,8.982,0,0,0,6.892,4.61l4.555.5a5.447,5.447,0,0,1,4.846,4.846l.5,4.556a8.988,8.988,0,0,0,4.611,6.891l4.008,2.2a5.512,5.512,0,0,1,2.628,6.338l-1.28,4.391a8.986,8.986,0,0,0,1.61,8.127l2.868,3.58a5.447,5.447,0,0,1,0,6.852l-2.868,3.58a8.991,8.991,0,0,0-1.611,8.128l1.281,4.39a5.446,5.446,0,0,1-2.628,6.339l-4.009,2.2a1.75,1.75,0,1,0,1.682,3.07l4.009-2.2a8.926,8.926,0,0,0,4.306-10.39l-1.281-4.389a5.49,5.49,0,0,1,.984-4.961l2.868-3.58a8.927,8.927,0,0,0,0-11.227l-2.868-3.58a5.482,5.482,0,0,1-.983-4.959l1.28-4.391a9.035,9.035,0,0,0-4.306-10.389l-4.008-2.2a5.484,5.484,0,0,1-2.814-4.2l-.5-4.555a8.925,8.925,0,0,0-7.941-7.941l-4.555-.5a5.481,5.481,0,0,1-4.2-2.813l-2.2-4.009a8.923,8.923,0,0,0-10.39-4.306L78.154,5.823a5.49,5.49,0,0,1-4.961-.984l-3.58-2.868a8.93,8.93,0,0,0-11.227,0l-3.58,2.868a5.5,5.5,0,0,1-4.959.983l-4.391-1.28A9.032,9.032,0,0,0,35.068,8.848l-2.2,4.008a5.484,5.484,0,0,1-4.2,2.814l-4.555.5a8.925,8.925,0,0,0-7.941,7.941l-.5,4.555a5.481,5.481,0,0,1-2.813,4.2l-4.009,2.2a8.926,8.926,0,0,0-4.306,10.39l1.281,4.389a5.49,5.49,0,0,1-.984,4.961l-2.868,3.58a8.927,8.927,0,0,0,0,11.227l2.868,3.58a5.482,5.482,0,0,1,.983,4.959l-1.28,4.391A9.035,9.035,0,0,0,8.848,92.932l4.008,2.2a5.484,5.484,0,0,1,2.814,4.2l.5,4.555a8.925,8.925,0,0,0,7.941,7.941l4.555.5a5.481,5.481,0,0,1,4.2,2.813l2.2,4.009a8.924,8.924,0,0,0,10.39,4.306l4.389-1.281a5.5,5.5,0,0,1,4.961.984l3.58,2.868a8.928,8.928,0,0,0,11.227,0Z" style="fill:url(#linear-gradient)"/></g></svg>
