<svg id="Capa_1" enable-background="new 0 0 512 512" height="512" viewBox="0 0 512 512" width="512" xmlns="http://www.w3.org/2000/svg"><g><path d="m421.883 241.381-111.757-75.352-54.126-17.614-38.145-12.415h-109.423l-108.432-35.815v180.088l66.566 32.783c12.569 14.223 75.279 77.944 189.434 77.944 103.275 0 164.015-51.802 184.045-72.277z" fill="#cc6e5c"/><path d="m421.883 241.381-111.757-75.352-54.126-17.614v242.585c103.275 0 164.015-51.802 184.045-72.277z" fill="#a65342"/><g><path d="m165.998 27.459h30.003v67.082h-30.003z" fill="#ffdf40" transform="matrix(.894 -.447 .447 .894 -8.171 87.386)"/></g><g><path d="m297.459 45.998h67.082v30.003h-67.082z" fill="#ffbe40" transform="matrix(.447 -.894 .894 .447 128.412 329.775)"/></g><g><path d="m147.459 435.998h67.082v30.003h-67.082z" fill="#ffdf40" transform="matrix(.447 -.894 .894 .447 -303.332 411.198)"/></g><g><path d="m315.998 417.459h30.003v67.082h-30.003z" fill="#ffbe40" transform="matrix(.894 -.447 .447 .894 -166.749 195.641)"/></g><path d="m256 16h-15v60h15 15v-60z" fill="#ffdf40"/><path d="m256 16h15v60h-15z" fill="#ffbe40"/><path d="m256 436h-15v60h15 15v-60z" fill="#ffdf40"/><path d="m256 436h15v60h-15z" fill="#ffbe40"/><path d="m403.568 136h-147.568-38.145c-22.764 0-43.257 12.715-53.481 33.179l-43.374 86.821h22.91c38.569 0 73.359-19.688 93.076-52.661l4.453-7.456 8.687.146c1.998.035 3.891.43 5.874.518 81.346 3.638 150.212 51.259 184.045 122.175l71.955-38.45v-180.087z" fill="#ffd9b3"/><path d="m440.045 318.723 71.955-38.451v-180.087l-108.432 35.815h-147.568v60.547c81.346 3.639 150.212 51.259 184.045 122.176z" fill="#fb9"/></g></svg>